<svg xmlns="http://www.w3.org/2000/svg" xmlns:xlink="http://www.w3.org/1999/xlink" data-name="Layer 1" preserveAspectRatio="xMinYMid meet" viewBox="395 314 510 166"><defs><linearGradient id="a" x1="527.76" x2="583.52" y1="402.67" y2="359.61" gradientTransform="rotate(65.15 567.804 371.797)" gradientUnits="userSpaceOnUse"><stop offset="0" stop-color="#0b2f52"/><stop offset=".98" stop-color="#1a98a6"/></linearGradient><linearGradient xlink:href="#a" id="c" x1="827.9" x2="770.01" y1="516.29" y2="411.35"/><linearGradient xlink:href="#a" id="d" x1="827.9" x2="770.01" y1="516.29" y2="411.35"/><linearGradient xlink:href="#a" id="e" x1="824.87" x2="766.98" y1="517.96" y2="413.02"/><linearGradient xlink:href="#a" id="f" x1="824.87" x2="766.98" y1="517.96" y2="413.02"/><linearGradient xlink:href="#a" id="g" x1="843.14" x2="785.25" y1="507.89" y2="402.95"/><linearGradient xlink:href="#a" id="h" x1="843.14" x2="785.25" y1="507.89" y2="402.95"/><linearGradient xlink:href="#a" id="i" x1="862.12" x2="804.24" y1="497.41" y2="392.47"/><linearGradient xlink:href="#a" id="j" x1="862.12" x2="804.24" y1="497.41" y2="392.47"/><linearGradient xlink:href="#a" id="k" x1="879.46" x2="821.57" y1="487.86" y2="382.91"/><linearGradient xlink:href="#a" id="l" x1="879.46" x2="821.57" y1="487.85" y2="382.91"/><linearGradient xlink:href="#a" id="m" x1="906.04" x2="848.16" y1="473.19" y2="368.25"/><linearGradient xlink:href="#a" id="n" x1="906.04" x2="848.16" y1="473.19" y2="368.25"/><clipPath id="b"><path d="M577.85 346.22c-3.74 12.1-11.3 29.97-11.3 29.97-4.66 10.24-11.99 8.99-11.99 8.99-6.05-.65-4.99-8.01-4.99-8.01 1.84-15.63 9.73-30.95 9.73-30.95h-11.02s-14.36 28.26-6.88 42.23c0 0 4.81 8.1 12.45 8.09 0 0 14.09.74 18.69-12.5 0 0 1.1 12.32 13.88 12.5 0 0 10.68-.49 15.22-6.86v-17.33c-.71 4.41-5.61 8.99-5.61 8.99-6.07 6.32-11.39 3.85-11.39 3.85-7.2-2.85-2.86-17.74-2.86-17.74l7.43-21.23z" style="fill:none"/></clipPath></defs><path d="M502.5 347.6c-23.15-23.15-60.82-23.15-83.97 0s-23.15 60.82 0 83.97l41.99 41.98 41.98-41.98c23.15-23.15 23.15-60.82 0-83.97m-64.18 64.18c-12.24-12.24-12.24-32.14 0-44.38s32.14-12.24 44.38 0 12.24 32.14 0 44.38-32.14 12.24-44.38 0" style="fill:#d9a441"/><g style="clip-path:url(#b)"><path d="M530.39 330.3h74.79v82.9h-74.79z" style="fill:url(#a)" transform="rotate(-65.15 567.829 371.752)"/></g><path d="M635.06 383.59c8.84 5.95 17.89-.49 17.89-.49v10.79c-14.42 5.39-24.3-1.72-24.3-1.72-7.4-4.66-16.75-18.64-16.75-18.64v22.18h-10.67v-69.27h10.67v40.25l18.72-22.56h14.79l-23.77 25.83c3.85 6.79 13.42 13.62 13.42 13.62m35.21 12.13H659.6v-51.57h10.67v7.49c2.99-5.15 8.14-8.33 15.44-8.33v11.05H683c-7.86 0-12.73 3.28-12.73 14.23v27.14Zm47.45.84c-14.79 0-25.74-10.48-25.74-26.68s10.48-26.58 25.74-26.58 25.09 10.2 25.09 25.37c0 1.78-.09 3.46-.38 5.24h-39.41c.75 8.52 6.83 13.67 14.7 13.67 6.55 0 10.2-3.18 12.17-7.21h11.51c-2.9 8.99-11.05 16.19-23.68 16.19m-14.6-31.26h28.55c-.19-7.96-6.46-13.01-14.42-13.01-7.21 0-13.01 4.87-14.13 13.01m70.95-22c8.7 0 14.7 4.12 17.88 8.33v-7.49h10.76v51.57h-10.76v-7.68c-3.28 4.4-9.45 8.52-18.07 8.52-13.38 0-24.15-10.95-24.15-26.86s10.76-26.4 24.34-26.4m2.25 9.27c-7.96 0-15.63 5.99-15.63 17.13s7.67 17.6 15.63 17.6 15.63-6.27 15.63-17.41-7.58-17.32-15.63-17.32m42.11.29h-6.09v-8.7h6.09v-12.82h10.76v12.82h12.54v8.7h-12.54v28.55c0 3.84 1.5 5.43 5.99 5.43h6.55v8.89h-8.42c-9.17 0-14.88-3.84-14.88-14.32zm55.32 43.71c-14.79 0-25.74-10.48-25.74-26.68s10.48-26.58 25.74-26.58 25.09 10.2 25.09 25.37c0 1.78-.09 3.46-.38 5.24h-39.41c.75 8.52 6.83 13.67 14.7 13.67 6.55 0 10.2-3.18 12.17-7.21h11.51c-2.9 8.99-11.05 16.19-23.68 16.19m-14.6-31.26h28.55c-.19-7.96-6.46-13.01-14.41-13.01-7.21 0-13.01 4.87-14.13 13.01" style="fill:#fff"/><path d="m476.15 386.62-20.87-12.05c-2.28-1.32-5.14.33-5.14 2.97v24.1c0 2.64 2.85 4.28 5.14 2.97l20.87-12.05c2.28-1.32 2.28-4.61 0-5.93Z" style="fill:#1e9aae"/><path d="M775.12 402.02q.135-.78.69-1.11c.38-.22.77-.3 1.17-.26.41.04.75.2 1.04.46s.38.61.26 1.04l-1.65 5.69c3.21-.52 6.43-1 9.64-1.43s6.2-.8 8.97-1.11c2.76-.3 5.17-.54 7.21-.72 2.04-.17 3.5-.27 4.36-.3q1.125 0 1.74.33c.4.22.68.49.82.83.14.33.17.69.09 1.06-.09.38-.25.7-.48.98s-.52.48-.87.61-.71.11-1.09-.07c-.49-.2-1.31-.33-2.45-.39s-2.51-.06-4.1 0-3.37.17-5.34.35c-1.97.17-4.02.39-6.17.65-2.14.26-4.34.56-6.6.91s-4.46.72-6.6 1.13a374 374 0 0 1-4.52 13.35c-1.59 4.44-3.14 8.62-4.65 12.53.4 2.06.55 4.17.43 6.34s-.61 4.36-1.48 6.56c-.09.23-.28.66-.56 1.28-.29.62-.65 1.34-1.09 2.15-.43.81-.93 1.68-1.48 2.61s-1.13 1.81-1.74 2.65-1.23 1.59-1.87 2.26-1.26 1.13-1.87 1.39c-.26.12-.57.15-.93.11s-.67-.17-.91-.37c-.25-.2-.38-.49-.41-.87s.14-.85.52-1.43c.12-.17.45-.9 1-2.17s1.24-2.94 2.08-4.99 1.79-4.43 2.87-7.12a407 407 0 0 0 3.3-8.6c-.26-1.91-.69-3.7-1.28-5.36s-1.27-3.18-2.04-4.54-1.57-2.58-2.41-3.65-1.62-1.98-2.34-2.71c-.72-.74-1.35-1.3-1.87-1.67-.52-.38-.84-.58-.96-.61-.26-.03-.45-.13-.56-.3-.12-.17-.19-.39-.22-.65s0-.54.07-.85c.07-.3.18-.6.33-.89.32-.64 1.08-1.26 2.28-1.87s2.73-1.19 4.58-1.76c1.85-.56 3.94-1.11 6.27-1.63s4.78-1.01 7.36-1.48c.61-2.26 1.09-4.37 1.43-6.34Zm-9.42 31c1.36-3.68 2.67-7.38 3.93-11.12 1.26-3.73 2.35-7.29 3.28-10.68-2.17.43-4.21.89-6.12 1.37s-3.58.97-5.02 1.48c-1.43.51-2.58 1.01-3.43 1.5s-1.31.97-1.37 1.43c-.03.12.28.6.93 1.45s1.44 1.99 2.37 3.41 1.89 3.08 2.89 4.99 1.85 3.97 2.54 6.17m-4.78 20.93c1.16-2.23 2.03-4.36 2.61-6.38.58-2.03.94-3.99 1.09-5.91-.75 1.94-1.45 3.72-2.08 5.34q-.96 2.43-1.65 4.23c-.46 1.2-.82 2.15-1.09 2.84-.26.69-.39 1.1-.39 1.22 0 .52.15.61.46.28.3-.33.66-.88 1.06-1.63Z" style="fill:url(#c)"/><path d="M756.32 462.13c-.1 0-.2 0-.31-.02-.4-.05-.75-.19-1.03-.42-.3-.24-.46-.59-.5-1.03-.03-.43.15-.95.56-1.58.08-.11.31-.57.98-2.14.55-1.27 1.25-2.95 2.08-4.99.84-2.05 1.79-4.43 2.86-7.12 1.06-2.67 2.17-5.54 3.28-8.54-.26-1.86-.68-3.63-1.26-5.26-.59-1.64-1.27-3.16-2.02-4.5-.76-1.34-1.56-2.56-2.39-3.62s-1.62-1.97-2.33-2.69-1.33-1.28-1.84-1.65c-.68-.49-.84-.56-.88-.57-.3-.03-.55-.17-.7-.4-.14-.2-.22-.46-.25-.76-.03-.28 0-.6.07-.93.08-.32.19-.64.34-.94.34-.69 1.12-1.33 2.38-1.97 1.21-.61 2.76-1.21 4.62-1.77 1.85-.56 3.96-1.11 6.29-1.63 2.27-.51 4.7-1 7.22-1.45.59-2.19 1.05-4.26 1.39-6.18.1-.59.37-1.02.81-1.27.42-.24.86-.34 1.31-.29s.85.22 1.17.51c.25.22.5.62.33 1.28l-1.55 5.34c3.08-.5 6.2-.96 9.28-1.37 3.2-.43 6.22-.81 8.97-1.11 2.76-.3 5.19-.54 7.21-.72 2.03-.17 3.5-.28 4.38-.3.81 0 1.41.12 1.85.35.45.24.76.56.93.94.16.38.2.79.1 1.21a2.4 2.4 0 0 1-.53 1.07c-.26.3-.58.53-.96.68-.41.15-.83.13-1.27-.07-.46-.19-1.26-.31-2.37-.37-1.13-.06-2.5-.06-4.08 0-1.59.06-3.38.18-5.33.35-1.96.17-4.03.39-6.16.65s-4.35.57-6.59.91c-2.19.34-4.36.71-6.46 1.1-1.4 4.39-2.9 8.84-4.48 13.23-1.57 4.39-3.13 8.58-4.62 12.47.4 2.04.54 4.17.43 6.33-.12 2.19-.62 4.42-1.49 6.63-.09.23-.27.65-.57 1.29-.29.62-.66 1.35-1.09 2.16-.43.8-.93 1.68-1.48 2.61s-1.14 1.83-1.75 2.67a21 21 0 0 1-1.89 2.28c-.66.69-1.31 1.17-1.94 1.44-.22.1-.47.14-.74.14Zm20.46-61.25c-.29 0-.57.08-.85.24-.32.18-.51.49-.58.94a74 74 0 0 1-1.44 6.36l-.04.14-.15.03c-2.57.46-5.04.96-7.35 1.47-2.32.52-4.42 1.06-6.26 1.62-1.83.56-3.36 1.14-4.54 1.74-1.15.58-1.88 1.17-2.18 1.76-.14.27-.24.56-.31.84s-.09.53-.06.77c.02.22.08.41.18.55.08.11.21.18.4.2.14.03.35.13 1.07.65.53.38 1.17.95 1.9 1.7.72.74 1.52 1.66 2.36 2.73.84 1.08 1.66 2.31 2.43 3.68s1.46 2.91 2.06 4.57c.6 1.67 1.03 3.49 1.29 5.41v.06l-.01.05c-1.12 3.02-2.23 5.91-3.3 8.6a754 754 0 0 1-2.87 7.12c-.84 2.04-1.54 3.72-2.09 5-.75 1.73-.94 2.09-1.02 2.21-.34.53-.51.96-.48 1.29.02.31.13.54.33.71.21.17.48.28.79.32.32.04.59 0 .81-.09.58-.25 1.18-.7 1.79-1.34.63-.66 1.25-1.41 1.85-2.23.6-.83 1.18-1.71 1.73-2.63.55-.93 1.04-1.8 1.47-2.6s.79-1.52 1.08-2.14c.29-.63.47-1.04.56-1.26.86-2.17 1.35-4.35 1.46-6.49s-.03-4.26-.43-6.28v-.07l.01-.06c1.5-3.9 3.06-8.11 4.64-12.52 1.59-4.43 3.11-8.92 4.51-13.34l.04-.13.14-.03c2.14-.4 4.37-.79 6.61-1.13 2.25-.35 4.47-.65 6.61-.91s4.21-.48 6.17-.65 3.76-.29 5.35-.35 2.98-.06 4.12 0c1.18.06 2.01.19 2.53.41.33.15.63.17.91.06.31-.12.56-.29.77-.54.21-.24.35-.54.43-.88.08-.33.05-.63-.07-.92-.12-.28-.37-.52-.72-.71-.37-.2-.92-.3-1.63-.3-.86.03-2.32.13-4.34.3s-4.45.41-7.2.72c-2.75.3-5.76.67-8.96 1.11-3.19.43-6.43.91-9.63 1.43l-.37.06 1.75-6.04c.09-.34.03-.6-.19-.8a1.55 1.55 0 0 0-.91-.4h-.18Zm-17.21 55.13s-.08 0-.12-.02c-.25-.1-.28-.42-.28-.69 0-.11.05-.35.41-1.3.26-.7.62-1.64 1.09-2.85q.69-1.8 1.65-4.23c.64-1.62 1.33-3.4 2.08-5.34l.57-1.47-.12 1.57c-.15 1.92-.51 3.92-1.09 5.95s-1.46 4.19-2.62 6.43c-.42.78-.78 1.33-1.1 1.68-.07.07-.25.27-.46.27Zm4.61-12.6c-.51 1.31-.99 2.54-1.44 3.68a454 454 0 0 0-2.73 7.07c-.34.91-.37 1.1-.38 1.14v.17l.04-.04c.29-.32.64-.85 1.03-1.58 1.15-2.21 2.02-4.34 2.59-6.34.4-1.39.69-2.76.88-4.1Zm1.5-9.66-.21-.65c-.69-2.18-1.54-4.24-2.52-6.13-.99-1.89-1.96-3.57-2.88-4.97a59 59 0 0 0-2.36-3.39c-1.05-1.37-1.01-1.51-.97-1.65.06-.52.55-1.04 1.48-1.58.86-.5 2.03-1.01 3.47-1.52s3.13-1.01 5.04-1.48c1.9-.48 3.97-.94 6.13-1.37l.37-.07-.1.37c-.93 3.38-2.03 6.98-3.28 10.69-1.26 3.72-2.58 7.47-3.93 11.12l-.24.64Zm6.9-22.21c-2.02.41-3.95.84-5.74 1.29-1.89.47-3.57.97-4.99 1.47-1.41.5-2.56 1-3.39 1.48-.77.45-1.21.88-1.25 1.26 0 .02.11.26.89 1.28.65.85 1.45 2 2.38 3.42s1.9 3.11 2.9 5.01c.9 1.73 1.69 3.59 2.35 5.56 1.27-3.45 2.51-6.97 3.69-10.48 1.2-3.57 2.27-7.03 3.17-10.3Z" style="fill:url(#d)"/><path d="M775.16 434.81c0 .49.06.9.17 1.22.12.32.4.48.85.48s1.11-.21 1.98-.63 2.07-1.14 3.6-2.15c.75-.49 1.32-.6 1.72-.33.39.28.61.73.67 1.37s-.05 1.35-.33 2.15-.7 1.48-1.28 2.06c-1.3 1.36-2.46 2.67-3.47 3.93s-1.83 2.41-2.45 3.45-1.01 1.93-1.17 2.65-.05 1.22.33 1.48c.46.32 1.23.3 2.3-.04 1.07-.35 2.38-1.04 3.93-2.08s3.31-2.44 5.3-4.19q2.97-2.625 6.45-6.36c.2-.2.46-.35.78-.43.32-.09.59-.09.8 0 .22.09.33.27.35.54.01.28-.18.64-.59 1.11-.75.87-1.61 1.82-2.58 2.84-.97 1.03-2 2.06-3.1 3.08q-1.65 1.545-3.45 2.97c-1.2.96-2.4 1.8-3.58 2.52-1.19.72-2.35 1.29-3.5 1.69-1.14.41-2.22.56-3.23.48-.96-.09-1.71-.38-2.26-.87s-.72-1.28-.52-2.37.88-2.51 2.04-4.28 2.98-3.95 5.47-6.56c.32-.75.48-1.24.5-1.45.01-.22-.1-.28-.35-.2-.25.09-.59.28-1.04.56-.45.29-.97.57-1.56.85s-1.25.49-1.95.65c-.71.16-1.44.15-2.19-.02-1.07-.26-1.79-.72-2.15-1.37s-.51-1.35-.43-2.08c.07-.74.3-1.44.69-2.11s.82-1.16 1.28-1.48c.58-.38 1.06-.34 1.45.11s.57 1.38.54 2.8Z" style="fill:url(#e)"/><path d="M776.18 452.86c-.19 0-.37 0-.56-.02-1-.09-1.81-.4-2.39-.93-.61-.55-.81-1.42-.59-2.58.21-1.11.9-2.58 2.08-4.36 1.16-1.76 3-3.97 5.47-6.56.36-.84.44-1.18.46-1.31 0 0-.02 0-.03.01q-.345.12-.99.54c-.46.29-.99.58-1.59.86-.61.28-1.28.51-2 .67-.74.17-1.51.16-2.3-.02-1.13-.28-1.91-.77-2.3-1.48-.38-.69-.54-1.44-.46-2.22.07-.77.32-1.51.73-2.2s.86-1.21 1.35-1.55c.86-.56 1.44-.23 1.76.15.43.5.63 1.47.6 2.96 0 .46.05.84.16 1.13.05.14.17.32.63.32.41 0 1.04-.2 1.87-.61.85-.41 2.06-1.13 3.58-2.13.84-.55 1.5-.66 1.98-.32.45.31.71.83.77 1.54.06.67-.05 1.42-.34 2.25s-.74 1.55-1.34 2.15a63 63 0 0 0-3.46 3.91c-1 1.24-1.82 2.4-2.43 3.43q-.915 1.53-1.14 2.58c-.14.62-.06 1.03.23 1.23.4.27 1.1.25 2.1-.07 1.05-.34 2.35-1.03 3.87-2.06 1.53-1.03 3.31-2.44 5.27-4.17 1.97-1.74 4.13-3.87 6.43-6.34.24-.24.53-.4.89-.5.37-.1.69-.1.95 0 .21.08.47.28.49.75.02.34-.19.76-.64 1.27-.76.87-1.63 1.83-2.59 2.85-.97 1.03-2.02 2.07-3.11 3.09-1.1 1.03-2.27 2.03-3.47 2.99s-2.42 1.81-3.61 2.54c-1.2.73-2.39 1.3-3.54 1.71-.96.34-1.9.51-2.78.51Zm4.53-16.25c.1 0 .18.03.25.08.08.06.17.18.15.4-.01.16-.08.49-.52 1.53l-.05.07c-2.47 2.58-4.3 4.78-5.44 6.52-1.14 1.73-1.81 3.14-2.01 4.19-.19.99-.04 1.72.45 2.15.51.46 1.22.73 2.12.81.97.08 2.03-.07 3.14-.47 1.12-.4 2.28-.96 3.45-1.67s2.37-1.56 3.56-2.5a58 58 0 0 0 3.44-2.96c1.09-1.02 2.13-2.05 3.09-3.07.96-1.01 1.82-1.97 2.58-2.84.47-.54.54-.82.53-.94-.01-.23-.11-.3-.2-.34-.17-.07-.39-.06-.65 0-.28.08-.5.2-.68.37-2.31 2.48-4.48 4.62-6.46 6.37s-3.77 3.16-5.32 4.21c-1.56 1.05-2.9 1.76-3.99 2.11-1.16.37-1.98.38-2.51.01-.46-.32-.6-.9-.42-1.72.16-.74.57-1.66 1.2-2.72.63-1.05 1.46-2.22 2.47-3.48 1.01-1.25 2.18-2.58 3.49-3.94.55-.55.97-1.22 1.23-1.98s.37-1.45.31-2.05c-.05-.57-.24-.96-.57-1.2-.3-.21-.79-.1-1.45.33-1.54 1.01-2.76 1.74-3.63 2.16-.91.44-1.59.65-2.08.65-.69 0-.96-.34-1.07-.63-.12-.34-.19-.78-.19-1.3.03-1.36-.14-2.25-.49-2.65-.21-.24-.53-.47-1.15-.07-.43.29-.84.77-1.21 1.4-.37.64-.6 1.31-.66 2.01-.07.69.07 1.34.41 1.95.33.59 1 1.01 2 1.25.71.16 1.41.17 2.09.02.69-.15 1.33-.37 1.91-.64s1.1-.55 1.53-.83c.47-.3.83-.49 1.09-.59.09-.03.18-.05.26-.05Z" style="fill:url(#f)"/><path d="M805.6 430.07c1.19-.09 2.12.03 2.8.35s1.18.73 1.5 1.24.51 1.04.56 1.61c.06.56.07 1.06.04 1.5q-.09.87-.63 1.26t-1.17.39c-.63 0-.8-.11-1.15-.33s-.52-.53-.52-.93c0-.23 0-.54.02-.93.01-.39-.02-.76-.11-1.11s-.28-.61-.56-.78c-.29-.17-.75-.17-1.39 0-1.77.52-3.38 1.25-4.84 2.17-1.46.93-2.74 1.94-3.82 3.04-1.09 1.1-1.97 2.21-2.65 3.34s-1.13 2.16-1.35 3.1q-.33 1.41.09 2.34c.27.62.83.96 1.67 1.02.78.06 1.63-.07 2.54-.39s1.81-.74 2.69-1.26 1.7-1.09 2.45-1.69c.75-.61 1.36-1.16 1.82-1.65.26-.61.61-1.26 1.04-1.95q.255-.6.63-1.35c.25-.49.54-.92.87-1.28s.72-.62 1.15-.78.93-.11 1.48.15c.29.15.48.32.59.52.1.2.14.41.11.61.12.29.06.52-.17.69l-.43.39q-1.305 1.65-2.61 3c-.58.87-.96 1.65-1.13 2.34s-.22 1.29-.15 1.78.22.89.43 1.19.44.47.67.5c.75.15 1.64 0 2.67-.46 1.03-.45 2.11-1.06 3.23-1.82q1.695-1.155 3.39-2.58c1.13-.96 2.16-1.87 3.08-2.74.93-.87 1.72-1.62 2.37-2.26s1.06-1.01 1.24-1.13q.78-.57 1.35-.39c.38.12.42.49.13 1.13-.15.29-.59.84-1.35 1.65-.75.81-1.69 1.74-2.82 2.78a58 58 0 0 1-3.76 3.17c-1.38 1.07-2.75 2-4.13 2.8s-2.69 1.37-3.93 1.72c-1.25.35-2.3.3-3.17-.13-.58-.26-1.04-.74-1.39-1.45q-.525-1.065-.39-2.67-2.085 1.65-4.17 2.52c-1.39.58-2.84.87-4.34.87-.93 0-1.66-.1-2.21-.3s-.98-.47-1.28-.8-.51-.7-.61-1.11c-.1-.4-.17-.78-.2-1.13-.03-1.1.2-2.25.67-3.45.48-1.2 1.12-2.37 1.93-3.52.81-1.14 1.76-2.23 2.84-3.26 1.09-1.03 2.22-1.94 3.41-2.74s2.38-1.45 3.58-1.95c1.2-.51 2.32-.79 3.37-.85Z" style="fill:url(#g)"/><path d="M806.01 450.51c-.64 0-1.21-.13-1.73-.39-.62-.28-1.13-.8-1.5-1.56-.31-.63-.45-1.39-.44-2.28-1.27.96-2.55 1.71-3.82 2.24-1.41.59-2.9.89-4.43.89-.95 0-1.72-.11-2.3-.32s-1.04-.51-1.37-.87-.55-.77-.66-1.21c-.1-.42-.17-.81-.2-1.17-.03-1.14.2-2.33.69-3.56.48-1.21 1.14-2.41 1.96-3.57.81-1.15 1.78-2.26 2.87-3.29s2.25-1.96 3.44-2.76 2.41-1.47 3.62-1.98c1.22-.51 2.38-.8 3.44-.86 1.22-.09 2.2.04 2.91.37.72.34 1.26.78 1.6 1.32.34.53.54 1.11.6 1.71.06.57.07 1.09.04 1.54-.07.65-.31 1.13-.73 1.43-.8.57-1.81.56-2.58.07-.42-.26-.63-.64-.63-1.13 0-.23 0-.55.02-.94.01-.37-.02-.72-.1-1.04a.96.96 0 0 0-.46-.64c-.23-.14-.65-.13-1.21.03-1.73.51-3.34 1.23-4.78 2.14s-2.71 1.92-3.78 3.01c-1.07 1.08-1.95 2.19-2.61 3.3-.66 1.1-1.11 2.12-1.32 3.04-.2.89-.18 1.63.07 2.2.24.54.72.83 1.47.88.75.06 1.57-.07 2.45-.38.89-.31 1.78-.73 2.65-1.24s1.68-1.08 2.43-1.67c.73-.59 1.32-1.13 1.77-1.6.26-.6.61-1.26 1.04-1.95.16-.38.37-.84.62-1.33s.56-.96.91-1.33c.36-.39.77-.67 1.24-.84.49-.18 1.05-.13 1.66.16.34.17.57.38.7.63.11.23.16.46.14.68.12.36.03.69-.27.91l-.42.38c-.84 1.07-1.72 2.09-2.59 2.98-.53.81-.9 1.57-1.07 2.24-.17.66-.21 1.23-.15 1.69.07.45.2.82.39 1.09.18.25.35.38.51.4.72.14 1.57-.01 2.55-.44 1.01-.44 2.09-1.05 3.2-1.8 1.11-.76 2.25-1.62 3.37-2.57s2.15-1.86 3.07-2.73 1.71-1.62 2.36-2.25c.89-.87 1.15-1.08 1.27-1.16.57-.41 1.1-.56 1.54-.42.25.08.37.24.42.35.12.26.07.62-.15 1.09-.16.32-.61.88-1.39 1.71-.76.81-1.71 1.75-2.83 2.79-1.13 1.04-2.4 2.11-3.77 3.18a38 38 0 0 1-4.15 2.82c-1.38.8-2.72 1.39-3.98 1.74-.57.16-1.11.24-1.61.24Zm-3.13-5.24-.04.54c-.08 1.02.04 1.88.37 2.55.32.66.75 1.11 1.28 1.34.82.41 1.83.45 3.01.12 1.22-.34 2.53-.91 3.88-1.69 1.36-.79 2.74-1.72 4.1-2.78a57 57 0 0 0 3.74-3.16c1.12-1.03 2.06-1.96 2.81-2.77.91-.98 1.22-1.41 1.31-1.6.21-.46.17-.64.14-.7-.01-.03-.04-.07-.13-.1q-.45-.135-1.14.36c-.12.08-.42.33-1.21 1.11-.65.64-1.44 1.39-2.37 2.26s-1.97 1.79-3.09 2.74a41 41 0 0 1-3.41 2.6c-1.14.77-2.24 1.39-3.27 1.84-1.07.47-2.01.63-2.81.47-.28-.03-.56-.23-.82-.59-.24-.33-.4-.77-.48-1.3-.08-.52-.02-1.15.16-1.87s.57-1.53 1.16-2.42c.89-.92 1.76-1.92 2.62-3.01l.46-.42c.14-.11.2-.21.11-.43l-.02-.06v-.06c.03-.16 0-.31-.08-.47-.08-.15-.24-.3-.48-.42-.49-.23-.91-.28-1.29-.14-.4.15-.75.39-1.06.72-.32.34-.6.76-.83 1.23-.24.48-.45.93-.62 1.33-.44.71-.79 1.36-1.04 1.95l-.04.07c-.47.5-1.09 1.06-1.85 1.67s-1.59 1.19-2.48 1.71c-.89.53-1.81.96-2.73 1.28-.94.33-1.83.46-2.63.4-.93-.06-1.56-.45-1.87-1.16-.29-.67-.33-1.5-.1-2.49.22-.96.68-2.03 1.37-3.17.68-1.14 1.59-2.28 2.68-3.39s2.39-2.14 3.86-3.07 3.12-1.67 4.9-2.2c.71-.19 1.23-.19 1.58.02.34.21.57.52.67.93q.135.555.12 1.17c-.01.39-.02.7-.02.92 0 .33.13.56.41.74.62.39 1.41.41 2.06-.06.31-.22.48-.58.53-1.09.03-.41.01-.9-.04-1.45-.05-.53-.23-1.03-.53-1.51-.29-.46-.76-.85-1.4-1.15s-1.54-.41-2.68-.33c-1.01.06-2.12.34-3.29.83-1.18.5-2.37 1.15-3.54 1.93s-2.31 1.7-3.38 2.71-2.02 2.1-2.81 3.22c-.8 1.12-1.44 2.29-1.91 3.47-.46 1.17-.69 2.3-.66 3.36.03.32.09.69.19 1.08.09.37.28.7.55 1.01.28.3.68.55 1.19.74.52.19 1.24.29 2.13.29 1.47 0 2.9-.29 4.25-.85 1.36-.57 2.75-1.4 4.11-2.49l.42-.33Z" style="fill:url(#h)"/><path d="M826.75 431.59c.55.2.88.51 1 .91q.18.615 0 1.32c-.12.48-.3.94-.54 1.39-.25.45-.44.8-.59 1.06-.12.17-.36.61-.74 1.3s-.8 1.5-1.28 2.41-.96 1.88-1.43 2.91c-.48 1.03-.85 1.95-1.13 2.78s-.41 1.48-.39 1.98c.01.49.27.68.76.56 1.65-.38 3.27-1.1 4.86-2.17s3.02-2.4 4.3-3.99c1.27-1.59 2.34-3.42 3.19-5.49q1.275-3.105 1.5-6.66c.06-.69.21-1.32.46-1.89.25-.56.6-.93 1.06-1.11.17-.06.37-.09.59-.11.22-.01.42.04.61.17s.35.37.5.72c.14.35.23.87.26 1.56q.045 1.785-.69 4.02c-.49 1.49-1.18 3-2.06 4.54-.88 1.53-1.93 3.04-3.13 4.52s-2.49 2.79-3.86 3.95c-1.38 1.16-2.81 2.11-4.3 2.84-1.49.74-2.96 1.14-4.41 1.19-.78.03-1.27-.3-1.45-1-.19-.69-.21-1.58-.07-2.67s.41-2.29.8-3.6c.39-1.32.79-2.55 1.19-3.71s.76-2.16 1.06-3.02c.3-.85.44-1.38.41-1.59-.06-.29 0-.64.17-1.06s.42-.82.74-1.19c.32-.38.7-.66 1.15-.85s.93-.2 1.45-.02Z" style="fill:url(#i)"/><path d="M821.19 450.54c-.83 0-1.38-.4-1.59-1.17-.2-.72-.22-1.65-.07-2.76.15-1.09.42-2.31.81-3.64s.8-2.58 1.2-3.72c.41-1.16.76-2.16 1.06-3.02.4-1.14.41-1.42.4-1.47-.07-.32 0-.72.19-1.19q.27-.66.78-1.26c.34-.4.76-.71 1.24-.91.5-.21 1.05-.22 1.62-.03.62.23 1.01.59 1.14 1.07.13.44.13.93 0 1.44-.12.5-.31.98-.57 1.45-.25.45-.44.8-.59 1.07-.09.13-.28.45-.74 1.3-.38.69-.8 1.5-1.28 2.41-.47.9-.95 1.88-1.43 2.9-.47 1.02-.85 1.94-1.12 2.75-.27.79-.39 1.43-.38 1.89 0 .12.02.27.1.33.07.05.2.06.37.02 1.62-.37 3.23-1.09 4.79-2.14s2.99-2.38 4.25-3.95c1.25-1.57 2.32-3.4 3.16-5.44s1.34-4.25 1.48-6.59c.06-.72.22-1.38.48-1.97.27-.62.67-1.04 1.2-1.23.2-.07.42-.11.65-.12.27-.02.53.05.76.21s.42.43.58.82c.16.38.25.91.28 1.64.03 1.21-.21 2.59-.71 4.1-.49 1.5-1.2 3.04-2.08 4.58s-1.94 3.07-3.15 4.55a30 30 0 0 1-3.9 3.98c-1.38 1.16-2.84 2.13-4.35 2.87-1.51.75-3.03 1.16-4.5 1.22h-.1Zm4.84-18.84c-.22 0-.43.04-.64.13-.41.17-.77.44-1.06.78-.3.35-.54.74-.7 1.13-.15.38-.21.69-.16.93.03.18 0 .53-.42 1.71-.3.85-.66 1.86-1.06 3.02-.4 1.13-.8 2.38-1.19 3.7-.39 1.3-.65 2.5-.8 3.57-.14 1.05-.12 1.92.06 2.58.16.59.55.85 1.22.83 1.41-.06 2.86-.45 4.31-1.17 1.47-.73 2.9-1.67 4.25-2.81 1.36-1.14 2.65-2.46 3.83-3.92a34 34 0 0 0 3.1-4.48c.87-1.51 1.56-3.03 2.04-4.49s.71-2.78.68-3.94c-.03-.66-.11-1.16-.24-1.48-.13-.3-.27-.51-.42-.61-.14-.1-.3-.14-.46-.13-.2.01-.37.05-.53.1-.4.15-.7.47-.92.98-.23.54-.38 1.15-.44 1.82-.15 2.38-.66 4.65-1.51 6.73-.86 2.08-1.94 3.95-3.22 5.55s-2.75 2.96-4.35 4.04c-1.61 1.08-3.27 1.82-4.94 2.21-.32.08-.57.04-.76-.1-.18-.14-.28-.37-.29-.69-.02-.52.12-1.2.4-2.06.27-.83.66-1.77 1.14-2.8s.96-2.01 1.44-2.92.91-1.72 1.28-2.41q.57-1.05.75-1.32c.13-.24.33-.6.58-1.05.24-.43.41-.88.52-1.33.11-.44.11-.84 0-1.21-.09-.33-.37-.58-.85-.76-.23-.07-.44-.11-.65-.11Z" style="fill:url(#j)"/><path d="M853.19 430.46q2.22-.18 3.39.96c.78.75 1.1 1.71.96 2.87a6.44 6.44 0 0 1-1.24 3.06q-1.02 1.365-2.43 2.34c-.94.65-1.94 1.17-3 1.54-1.06.38-2.03.59-2.93.65-1.33.12-2.43.03-3.3-.26s-1.46-.65-1.78-1.09c-.46 1.1-.69 2.16-.69 3.17 0 .61.12 1.13.37 1.56s.59.8 1.02 1.09.93.51 1.5.65c.56.14 1.16.2 1.8.17 1.45-.06 2.9-.33 4.36-.8q2.19-.72 4.23-1.74t3.84-2.19c1.2-.78 2.26-1.52 3.17-2.21s1.65-1.3 2.21-1.8l1.02-.93c.43-.43.82-.69 1.15-.78s.58-.06.74.09c.16.14.21.38.15.69-.06.32-.28.67-.65 1.04-.93.93-2.16 2.01-3.71 3.26a46 46 0 0 1-5.15 3.56 34 34 0 0 1-5.97 2.84c-2.1.77-4.18 1.14-6.23 1.11-1.53-.03-2.72-.27-3.56-.72s-1.45-.98-1.85-1.58c-.39-.61-.62-1.22-.69-1.82-.07-.61-.12-1.07-.15-1.39-.03-.55.08-1.24.33-2.08s.63-1.73 1.15-2.67 1.17-1.9 1.95-2.87 1.67-1.85 2.67-2.65 2.11-1.47 3.34-2.02 2.55-.9 3.97-1.04Zm-.13 2.21c-1.91.29-3.69.99-5.34 2.11-1.65 1.11-2.97 2.44-3.95 3.97q.39.09.87.24t1.02.33c.36.12.73.21 1.11.28s.77.09 1.17.07c.78-.03 1.54-.18 2.28-.46.74-.27 1.42-.64 2.04-1.09s1.18-1 1.67-1.65.87-1.4 1.13-2.24c.14-.43.06-.84-.26-1.22s-.9-.49-1.74-.35Z" style="fill:url(#k)"/><path d="M846.25 449.54h-.23c-1.57-.03-2.8-.28-3.67-.74s-1.52-1.02-1.93-1.66-.65-1.28-.73-1.92c-.07-.61-.12-1.08-.15-1.4-.03-.58.08-1.31.33-2.17.25-.85.64-1.77 1.17-2.72s1.19-1.92 1.98-2.9 1.7-1.88 2.71-2.68c1.01-.81 2.15-1.49 3.39-2.05 1.25-.56 2.61-.91 4.04-1.06 1.54-.12 2.74.22 3.57 1.02s1.18 1.83 1.02 3.06a6.65 6.65 0 0 1-1.28 3.17c-.69.93-1.53 1.73-2.49 2.4-.95.66-1.98 1.19-3.05 1.57s-2.08.61-2.99.66c-1.35.12-2.49.03-3.39-.27-.71-.24-1.26-.53-1.63-.87-.36.94-.54 1.86-.54 2.73 0 .56.11 1.05.34 1.45s.55.74.95 1.01c.41.27.89.48 1.43.62s1.12.19 1.73.17c1.42-.06 2.87-.32 4.3-.79 1.44-.47 2.86-1.05 4.2-1.72s2.63-1.4 3.82-2.18 2.25-1.52 3.16-2.2c.91-.69 1.65-1.29 2.2-1.79.56-.5.9-.81 1.01-.92.47-.47.88-.74 1.26-.84.41-.11.73-.06.95.14s.3.51.23.91c-.07.37-.3.75-.72 1.17-.93.93-2.18 2.03-3.73 3.27-1.55 1.25-3.29 2.45-5.17 3.58-1.89 1.13-3.91 2.1-6.01 2.86-2.04.75-4.09 1.12-6.09 1.12Zm6.96-18.85c-1.39.14-2.7.49-3.9 1.02a15.3 15.3 0 0 0-3.29 1.99c-.98.78-1.87 1.66-2.63 2.61-.77.95-1.42 1.91-1.93 2.83s-.89 1.81-1.13 2.62-.34 1.49-.32 2.01c.03.31.08.77.15 1.37.07.57.29 1.15.66 1.73.37.57.96 1.08 1.76 1.51s1.96.66 3.45.69c2.03.03 4.08-.34 6.15-1.09 2.07-.76 4.07-1.71 5.93-2.83s3.59-2.31 5.12-3.54 2.78-2.32 3.69-3.24c.34-.34.54-.65.59-.92.04-.23.02-.39-.08-.48-.12-.11-.35-.08-.52-.03-.29.08-.64.32-1.04.72-.12.12-.46.43-1.03.94-.56.51-1.31 1.12-2.23 1.81-.91.69-1.98 1.44-3.18 2.22-1.21.78-2.51 1.53-3.87 2.21s-2.8 1.27-4.27 1.75c-1.48.48-2.97.76-4.43.81-.66.03-1.29-.03-1.87-.18a5.1 5.1 0 0 1-1.57-.68c-.46-.31-.83-.7-1.09-1.16-.27-.47-.4-1.03-.4-1.68 0-1.04.24-2.14.71-3.26l.16-.38.24.33c.29.39.85.73 1.67 1 .83.28 1.91.36 3.21.25.88-.06 1.84-.27 2.87-.64s2.02-.88 2.94-1.51 1.72-1.41 2.38-2.29c.65-.87 1.05-1.87 1.19-2.95.14-1.09-.15-1.96-.89-2.67-.73-.7-1.81-1-3.2-.89m-5.62 9.22c-.3 0-.59-.03-.87-.08a9 9 0 0 1-1.13-.29l-1.02-.33c-.31-.1-.59-.18-.85-.23l-.33-.07.18-.28c1-1.55 2.35-2.91 4.02-4.04s3.5-1.85 5.43-2.14c.92-.16 1.58-.01 1.95.43s.48.93.3 1.44c-.27.86-.66 1.63-1.16 2.3a8.1 8.1 0 0 1-1.72 1.7q-.96.69-2.1 1.11c-.76.28-1.55.44-2.35.47-.12 0-.23.01-.35.01m-3.45-1.31c.18.05.37.1.56.16l1.02.33c.35.11.72.21 1.08.28q.54.105 1.11.06c.76-.03 1.5-.18 2.21-.44.71-.27 1.38-.62 1.99-1.06.6-.43 1.15-.97 1.62-1.6s.84-1.36 1.09-2.16c.12-.36.05-.68-.22-1-.26-.31-.77-.4-1.52-.27-1.87.28-3.63.98-5.24 2.07-1.52 1.03-2.76 2.25-3.7 3.63" style="fill:url(#l)"/><path d="M892.53 399.9c-.06.72-.38 1.91-.96 3.56s-1.38 3.56-2.41 5.73-2.25 4.49-3.67 6.97-3 4.9-4.75 7.27a60.5 60.5 0 0 1-5.67 6.64c-2.03 2.06-4.14 3.75-6.34 5.08a68 68 0 0 0-1.5 4.3c-.42 1.36-.73 2.61-.93 3.76-.2 1.14-.29 2.16-.26 3.06s.22 1.64.56 2.21c.58 1.01 1.43 1.49 2.54 1.43s2.35-.44 3.71-1.15 2.77-1.64 4.23-2.8 2.83-2.34 4.1-3.54 2.38-2.32 3.32-3.34q1.41-1.545 1.89-2.28c.12-.2.28-.29.5-.26s.4.12.56.28q.24.24.33.63c.06.26-.01.52-.22.78-.35.46-1.04 1.26-2.08 2.39s-2.28 2.35-3.71 3.67a53 53 0 0 1-4.67 3.82c-1.68 1.23-3.32 2.19-4.91 2.87q-2.385 1.02-4.41.78c-1.35-.16-2.42-.98-3.23-2.45-.52-.96-.75-2.23-.67-3.82.07-1.59.37-3.39.89-5.41q.78-3.015 2.13-6.51c.9-2.33 1.92-4.72 3.06-7.16 1.14-2.45 2.37-4.9 3.69-7.36s2.66-4.82 4.04-7.08c1.37-2.26 2.74-4.36 4.08-6.32 1.35-1.95 2.61-3.65 3.8-5.08q1.785-2.145 3.21-3.39c.96-.83 1.74-1.24 2.34-1.24.32 0 .57.12.76.35s.34.54.46.91c.12.38.18.8.2 1.28.01.48 0 .95-.02 1.41Zm-2.3-1.22c-.29.03-.83.53-1.63 1.5s-1.76 2.27-2.89 3.89a127 127 0 0 0-3.71 5.67c-1.35 2.16-2.71 4.45-4.08 6.88-1.38 2.43-2.73 4.93-4.06 7.49s-2.53 5.06-3.6 7.49c2.08-1.45 4.07-3.26 5.95-5.45s3.61-4.51 5.19-6.97 2.98-4.91 4.21-7.36 2.24-4.65 3.02-6.62 1.32-3.55 1.61-4.75.29-1.79 0-1.76Z" style="fill:url(#m)"/><path d="M868.57 452.04c-.27 0-.54-.02-.8-.05-1.42-.17-2.57-1.03-3.41-2.57-.54-.99-.78-2.32-.7-3.94.07-1.6.37-3.43.9-5.45.52-2.01 1.24-4.21 2.14-6.54.89-2.32 1.93-4.74 3.07-7.18s2.38-4.92 3.7-7.37c1.31-2.46 2.68-4.84 4.04-7.09 1.37-2.25 2.74-4.38 4.09-6.33 1.34-1.95 2.63-3.67 3.81-5.1 1.19-1.43 2.28-2.58 3.24-3.41 1.01-.87 1.83-1.29 2.5-1.29.39 0 .71.15.94.43.21.25.37.59.5.99.12.4.19.85.21 1.34.01.48 0 .96-.02 1.43-.06.76-.38 1.94-.97 3.62-.58 1.65-1.39 3.58-2.42 5.75-1.02 2.16-2.26 4.51-3.68 6.99a77 77 0 0 1-4.77 7.3 61 61 0 0 1-5.69 6.67c-2.01 2.04-4.13 3.75-6.32 5.07-.56 1.47-1.06 2.88-1.46 4.21-.42 1.35-.73 2.6-.93 3.73-.2 1.12-.29 2.14-.26 3.01.03.85.21 1.56.53 2.1.54.94 1.3 1.38 2.33 1.32 1.08-.06 2.29-.43 3.62-1.12 1.34-.7 2.75-1.63 4.2-2.78s2.82-2.33 4.09-3.53c1.26-1.19 2.38-2.31 3.31-3.33.93-1.01 1.55-1.77 1.86-2.25.16-.27.42-.41.73-.37.27.04.5.15.7.35.19.19.32.44.39.74.07.33-.01.66-.26.98-.35.47-1.04 1.26-2.1 2.4a60 60 0 0 1-3.73 3.68c-1.43 1.31-3.01 2.6-4.69 3.84-1.69 1.24-3.35 2.21-4.95 2.89-1.32.56-2.57.84-3.73.84Zm22.57-55.86c-.55 0-1.28.4-2.19 1.18-.94.81-2.01 1.94-3.19 3.36s-2.45 3.12-3.79 5.06c-1.34 1.95-2.71 4.07-4.07 6.31s-2.72 4.62-4.03 7.07a140 140 0 0 0-3.68 7.35 105 105 0 0 0-3.05 7.15c-.89 2.31-1.6 4.49-2.12 6.49-.51 1.99-.81 3.79-.88 5.36-.07 1.54.15 2.79.64 3.7.78 1.42 1.78 2.18 3.06 2.33 1.3.15 2.74-.1 4.29-.76 1.57-.67 3.2-1.62 4.86-2.84 1.67-1.22 3.23-2.5 4.65-3.8 1.42-1.31 2.67-2.54 3.7-3.66s1.73-1.92 2.07-2.37c.16-.21.22-.4.18-.59a1.16 1.16 0 0 0-.26-.52.78.78 0 0 0-.43-.22c-.1-.01-.19 0-.27.14-.33.51-.97 1.29-1.92 2.32a65 65 0 0 1-7.45 6.91c-1.47 1.16-2.9 2.11-4.27 2.82-1.38.72-2.67 1.12-3.81 1.18-1.21.06-2.13-.46-2.76-1.55-.36-.61-.57-1.39-.6-2.32-.03-.91.06-1.96.26-3.11.2-1.14.52-2.42.94-3.78s.92-2.81 1.5-4.31l.03-.07.07-.04c2.17-1.31 4.29-3.01 6.29-5.04a60 60 0 0 0 5.64-6.62c1.74-2.35 3.33-4.79 4.74-7.25s2.64-4.8 3.66-6.95c1.02-2.16 1.83-4.08 2.4-5.71.57-1.62.89-2.8.94-3.5.03-.46.04-.92.02-1.39-.01-.45-.08-.86-.19-1.22-.11-.34-.25-.63-.41-.83-.14-.18-.33-.26-.58-.26Zm-21.43 36.08.33-.76c1.07-2.42 2.28-4.95 3.61-7.5s2.69-5.07 4.06-7.5c1.36-2.41 2.74-4.73 4.09-6.89 1.34-2.15 2.59-4.06 3.72-5.68s2.1-2.93 2.9-3.9c1.11-1.36 1.54-1.56 1.79-1.58.13-.01.25.03.33.13.15.18.25.53-.08 1.92-.29 1.21-.84 2.82-1.62 4.79-.78 1.96-1.8 4.2-3.03 6.64a83 83 0 0 1-4.22 7.38 63 63 0 0 1-5.21 7c-1.89 2.19-3.9 4.04-5.99 5.49l-.68.47Zm20.49-33.33c-.14.06-.52.31-1.42 1.4-.79.96-1.75 2.26-2.88 3.87a136 136 0 0 0-3.71 5.66c-1.35 2.16-2.72 4.47-4.08 6.87-1.37 2.42-2.73 4.94-4.06 7.48-1.18 2.27-2.27 4.52-3.25 6.69 1.81-1.34 3.56-2.99 5.21-4.91 1.86-2.17 3.6-4.5 5.17-6.94 1.56-2.44 2.98-4.91 4.2-7.34s2.23-4.65 3.01-6.6c.77-1.95 1.31-3.54 1.6-4.72.24-1 .22-1.34.2-1.46Zm.05-.01" style="fill:url(#n)"/></svg>